<mxfile host="app.diagrams.net" agent="Mozilla/5.0 (Windows NT 10.0; Win64; x64) AppleWebKit/537.36 (KHTML, like Gecko) Chrome/136.0.0.0 Safari/537.36" version="26.2.14">
  <diagram name="Página-1" id="g9NnEJMm_Ebtz4JZuM1g">
    <mxGraphModel dx="786" dy="451" grid="1" gridSize="10" guides="1" tooltips="1" connect="1" arrows="1" fold="1" page="1" pageScale="1" pageWidth="827" pageHeight="1169" math="0" shadow="0">
      <root>
        <mxCell id="0" />
        <mxCell id="1" parent="0" />
        <mxCell id="5GbDGUJOhq0R7h1YQ40q-1" value="Usuário" style="shape=umlActor;verticalLabelPosition=bottom;verticalAlign=top;html=1;outlineConnect=0;" vertex="1" parent="1">
          <mxGeometry x="70" y="170" width="30" height="60" as="geometry" />
        </mxCell>
        <mxCell id="5GbDGUJOhq0R7h1YQ40q-3" value="Motorista" style="shape=umlActor;verticalLabelPosition=bottom;verticalAlign=top;html=1;outlineConnect=0;" vertex="1" parent="1">
          <mxGeometry x="80" y="480" width="30" height="60" as="geometry" />
        </mxCell>
        <mxCell id="5GbDGUJOhq0R7h1YQ40q-4" value="Gerenciar conta" style="ellipse;whiteSpace=wrap;html=1;" vertex="1" parent="1">
          <mxGeometry x="120" y="80" width="125" height="30" as="geometry" />
        </mxCell>
        <mxCell id="5GbDGUJOhq0R7h1YQ40q-5" value="Avaliar motorista" style="ellipse;whiteSpace=wrap;html=1;" vertex="1" parent="1">
          <mxGeometry x="120" y="131" width="120" height="30" as="geometry" />
        </mxCell>
        <mxCell id="5GbDGUJOhq0R7h1YQ40q-6" value="Ver histórico de corridas" style="ellipse;whiteSpace=wrap;html=1;" vertex="1" parent="1">
          <mxGeometry x="120" y="182" width="165" height="30" as="geometry" />
        </mxCell>
        <mxCell id="5GbDGUJOhq0R7h1YQ40q-7" value="Solicitar corrida" style="ellipse;whiteSpace=wrap;html=1;" vertex="1" parent="1">
          <mxGeometry x="120" y="231" width="120" height="30" as="geometry" />
        </mxCell>
        <mxCell id="5GbDGUJOhq0R7h1YQ40q-8" value="Carona compartihada" style="ellipse;whiteSpace=wrap;html=1;" vertex="1" parent="1">
          <mxGeometry x="120" y="278" width="170" height="30" as="geometry" />
        </mxCell>
        <mxCell id="5GbDGUJOhq0R7h1YQ40q-9" value="Pagar corrida" style="ellipse;whiteSpace=wrap;html=1;" vertex="1" parent="1">
          <mxGeometry x="120" y="329" width="120" height="30" as="geometry" />
        </mxCell>
        <mxCell id="5GbDGUJOhq0R7h1YQ40q-10" style="edgeStyle=orthogonalEdgeStyle;rounded=0;orthogonalLoop=1;jettySize=auto;html=1;exitX=0.5;exitY=1;exitDx=0;exitDy=0;" edge="1" parent="1" source="5GbDGUJOhq0R7h1YQ40q-5" target="5GbDGUJOhq0R7h1YQ40q-5">
          <mxGeometry relative="1" as="geometry" />
        </mxCell>
        <mxCell id="5GbDGUJOhq0R7h1YQ40q-11" style="edgeStyle=orthogonalEdgeStyle;rounded=0;orthogonalLoop=1;jettySize=auto;html=1;exitX=0.5;exitY=1;exitDx=0;exitDy=0;" edge="1" parent="1" source="5GbDGUJOhq0R7h1YQ40q-9" target="5GbDGUJOhq0R7h1YQ40q-9">
          <mxGeometry relative="1" as="geometry" />
        </mxCell>
        <mxCell id="5GbDGUJOhq0R7h1YQ40q-12" value="Atualizar informações pessoais" style="ellipse;whiteSpace=wrap;html=1;" vertex="1" parent="1">
          <mxGeometry x="280" y="20" width="230" height="30" as="geometry" />
        </mxCell>
        <mxCell id="5GbDGUJOhq0R7h1YQ40q-13" value="Alterar método de pagamento&lt;span style=&quot;color: rgba(0, 0, 0, 0); font-family: monospace; font-size: 0px; text-align: start; text-wrap-mode: nowrap;&quot;&gt;%3CmxGraphModel%3E%3Croot%3E%3CmxCell%20id%3D%220%22%2F%3E%3CmxCell%20id%3D%221%22%20parent%3D%220%22%2F%3E%3CmxCell%20id%3D%222%22%20value%3D%22Atualizar%20informa%C3%A7%C3%B5es%20pessoais%22%20style%3D%22ellipse%3BwhiteSpace%3Dwrap%3Bhtml%3D1%3B%22%20vertex%3D%221%22%20parent%3D%221%22%3E%3CmxGeometry%20x%3D%22260%22%20y%3D%2230%22%20width%3D%22230%22%20height%3D%2230%22%20as%3D%22geometry%22%2F%3E%3C%2FmxCell%3E%3C%2Froot%3E%3C%2FmxGraphModel%3E&lt;/span&gt;" style="ellipse;whiteSpace=wrap;html=1;" vertex="1" parent="1">
          <mxGeometry x="280" y="70" width="230" height="30" as="geometry" />
        </mxCell>
        <mxCell id="5GbDGUJOhq0R7h1YQ40q-14" value="Vizualizar detalhes da corrida" style="ellipse;whiteSpace=wrap;html=1;" vertex="1" parent="1">
          <mxGeometry x="310" y="130" width="230" height="30" as="geometry" />
        </mxCell>
        <mxCell id="5GbDGUJOhq0R7h1YQ40q-16" value="Escolher tipo de corrida" style="ellipse;whiteSpace=wrap;html=1;" vertex="1" parent="1">
          <mxGeometry x="320" y="182" width="230" height="30" as="geometry" />
        </mxCell>
        <mxCell id="5GbDGUJOhq0R7h1YQ40q-17" value="Definir destino" style="ellipse;whiteSpace=wrap;html=1;" vertex="1" parent="1">
          <mxGeometry x="320" y="220" width="230" height="30" as="geometry" />
        </mxCell>
        <mxCell id="5GbDGUJOhq0R7h1YQ40q-18" value="Avaliar passageiros" style="ellipse;whiteSpace=wrap;html=1;" vertex="1" parent="1">
          <mxGeometry x="320" y="278" width="230" height="30" as="geometry" />
        </mxCell>
        <mxCell id="5GbDGUJOhq0R7h1YQ40q-19" value="Dividir custos" style="ellipse;whiteSpace=wrap;html=1;" vertex="1" parent="1">
          <mxGeometry x="320" y="320" width="230" height="30" as="geometry" />
        </mxCell>
        <mxCell id="5GbDGUJOhq0R7h1YQ40q-20" value="Conectar com outros passageiros" style="ellipse;whiteSpace=wrap;html=1;" vertex="1" parent="1">
          <mxGeometry x="320" y="359" width="230" height="30" as="geometry" />
        </mxCell>
        <mxCell id="5GbDGUJOhq0R7h1YQ40q-22" value="Avaliar passageiro" style="ellipse;whiteSpace=wrap;html=1;" vertex="1" parent="1">
          <mxGeometry x="140" y="450" width="120" height="30" as="geometry" />
        </mxCell>
        <mxCell id="5GbDGUJOhq0R7h1YQ40q-23" value="Finalizar corrida" style="ellipse;whiteSpace=wrap;html=1;" vertex="1" parent="1">
          <mxGeometry x="140" y="495" width="120" height="30" as="geometry" />
        </mxCell>
        <mxCell id="5GbDGUJOhq0R7h1YQ40q-25" value="Iniciar corrida" style="ellipse;whiteSpace=wrap;html=1;" vertex="1" parent="1">
          <mxGeometry x="140" y="540" width="120" height="30" as="geometry" />
        </mxCell>
        <mxCell id="5GbDGUJOhq0R7h1YQ40q-26" value="Aceitar corrida" style="ellipse;whiteSpace=wrap;html=1;" vertex="1" parent="1">
          <mxGeometry x="140" y="585" width="120" height="30" as="geometry" />
        </mxCell>
        <mxCell id="5GbDGUJOhq0R7h1YQ40q-27" value="Calcular custo final" style="ellipse;whiteSpace=wrap;html=1;" vertex="1" parent="1">
          <mxGeometry x="318" y="495" width="230" height="30" as="geometry" />
        </mxCell>
        <mxCell id="5GbDGUJOhq0R7h1YQ40q-28" value="Confirmar local de partida" style="ellipse;whiteSpace=wrap;html=1;" vertex="1" parent="1">
          <mxGeometry x="320" y="540" width="230" height="30" as="geometry" />
        </mxCell>
        <mxCell id="5GbDGUJOhq0R7h1YQ40q-29" value="Ver detahes da solicitação" style="ellipse;whiteSpace=wrap;html=1;" vertex="1" parent="1">
          <mxGeometry x="320" y="585" width="230" height="30" as="geometry" />
        </mxCell>
        <mxCell id="5GbDGUJOhq0R7h1YQ40q-30" style="edgeStyle=orthogonalEdgeStyle;rounded=0;orthogonalLoop=1;jettySize=auto;html=1;exitX=0.5;exitY=1;exitDx=0;exitDy=0;" edge="1" parent="1" source="5GbDGUJOhq0R7h1YQ40q-23" target="5GbDGUJOhq0R7h1YQ40q-23">
          <mxGeometry relative="1" as="geometry" />
        </mxCell>
        <mxCell id="5GbDGUJOhq0R7h1YQ40q-32" value="" style="endArrow=none;html=1;rounded=0;entryX=0;entryY=0.5;entryDx=0;entryDy=0;exitX=1;exitY=0.5;exitDx=0;exitDy=0;" edge="1" parent="1" source="5GbDGUJOhq0R7h1YQ40q-4" target="5GbDGUJOhq0R7h1YQ40q-12">
          <mxGeometry width="50" height="50" relative="1" as="geometry">
            <mxPoint x="239.375" y="88.99000000000001" as="sourcePoint" />
            <mxPoint x="302.01" y="44.31999999999999" as="targetPoint" />
          </mxGeometry>
        </mxCell>
        <mxCell id="5GbDGUJOhq0R7h1YQ40q-34" value="" style="endArrow=none;html=1;rounded=0;entryX=0;entryY=0.5;entryDx=0;entryDy=0;exitX=1;exitY=0.5;exitDx=0;exitDy=0;" edge="1" parent="1" source="5GbDGUJOhq0R7h1YQ40q-4" target="5GbDGUJOhq0R7h1YQ40q-13">
          <mxGeometry width="50" height="50" relative="1" as="geometry">
            <mxPoint x="235" y="150" as="sourcePoint" />
            <mxPoint x="285" y="100" as="targetPoint" />
          </mxGeometry>
        </mxCell>
        <mxCell id="5GbDGUJOhq0R7h1YQ40q-36" value="" style="endArrow=none;html=1;rounded=0;entryX=0;entryY=0.5;entryDx=0;entryDy=0;exitX=1;exitY=0.5;exitDx=0;exitDy=0;" edge="1" parent="1" source="5GbDGUJOhq0R7h1YQ40q-5" target="5GbDGUJOhq0R7h1YQ40q-14">
          <mxGeometry width="50" height="50" relative="1" as="geometry">
            <mxPoint x="245" y="150" as="sourcePoint" />
            <mxPoint x="295" y="100" as="targetPoint" />
          </mxGeometry>
        </mxCell>
        <mxCell id="5GbDGUJOhq0R7h1YQ40q-37" value="" style="endArrow=none;html=1;rounded=0;exitX=1;exitY=0.5;exitDx=0;exitDy=0;entryX=0;entryY=0.5;entryDx=0;entryDy=0;" edge="1" parent="1" source="5GbDGUJOhq0R7h1YQ40q-6" target="5GbDGUJOhq0R7h1YQ40q-16">
          <mxGeometry width="50" height="50" relative="1" as="geometry">
            <mxPoint x="350" y="270" as="sourcePoint" />
            <mxPoint x="400" y="220" as="targetPoint" />
          </mxGeometry>
        </mxCell>
        <mxCell id="5GbDGUJOhq0R7h1YQ40q-38" value="" style="endArrow=none;html=1;rounded=0;exitX=1;exitY=0.5;exitDx=0;exitDy=0;entryX=0;entryY=0.5;entryDx=0;entryDy=0;" edge="1" parent="1" source="5GbDGUJOhq0R7h1YQ40q-6" target="5GbDGUJOhq0R7h1YQ40q-17">
          <mxGeometry width="50" height="50" relative="1" as="geometry">
            <mxPoint x="350" y="270" as="sourcePoint" />
            <mxPoint x="400" y="220" as="targetPoint" />
          </mxGeometry>
        </mxCell>
        <mxCell id="5GbDGUJOhq0R7h1YQ40q-39" value="" style="endArrow=none;html=1;rounded=0;exitX=1;exitY=0.5;exitDx=0;exitDy=0;entryX=0;entryY=0.5;entryDx=0;entryDy=0;" edge="1" parent="1" source="5GbDGUJOhq0R7h1YQ40q-8" target="5GbDGUJOhq0R7h1YQ40q-18">
          <mxGeometry width="50" height="50" relative="1" as="geometry">
            <mxPoint x="350" y="270" as="sourcePoint" />
            <mxPoint x="400" y="220" as="targetPoint" />
          </mxGeometry>
        </mxCell>
        <mxCell id="5GbDGUJOhq0R7h1YQ40q-40" value="" style="endArrow=none;html=1;rounded=0;entryX=0;entryY=0.5;entryDx=0;entryDy=0;exitX=1;exitY=0.5;exitDx=0;exitDy=0;" edge="1" parent="1" source="5GbDGUJOhq0R7h1YQ40q-8" target="5GbDGUJOhq0R7h1YQ40q-19">
          <mxGeometry width="50" height="50" relative="1" as="geometry">
            <mxPoint x="285" y="300" as="sourcePoint" />
            <mxPoint x="335" y="250" as="targetPoint" />
          </mxGeometry>
        </mxCell>
        <mxCell id="5GbDGUJOhq0R7h1YQ40q-41" value="" style="endArrow=none;html=1;rounded=0;entryX=1;entryY=0.5;entryDx=0;entryDy=0;exitX=0;exitY=0.5;exitDx=0;exitDy=0;" edge="1" parent="1" source="5GbDGUJOhq0R7h1YQ40q-20" target="5GbDGUJOhq0R7h1YQ40q-8">
          <mxGeometry width="50" height="50" relative="1" as="geometry">
            <mxPoint x="340" y="390" as="sourcePoint" />
            <mxPoint x="390" y="340" as="targetPoint" />
          </mxGeometry>
        </mxCell>
        <mxCell id="5GbDGUJOhq0R7h1YQ40q-42" value="" style="endArrow=none;html=1;rounded=0;exitX=1;exitY=0.5;exitDx=0;exitDy=0;entryX=0;entryY=0.5;entryDx=0;entryDy=0;" edge="1" parent="1" source="5GbDGUJOhq0R7h1YQ40q-23" target="5GbDGUJOhq0R7h1YQ40q-27">
          <mxGeometry width="50" height="50" relative="1" as="geometry">
            <mxPoint x="330" y="550" as="sourcePoint" />
            <mxPoint x="380" y="500" as="targetPoint" />
          </mxGeometry>
        </mxCell>
        <mxCell id="5GbDGUJOhq0R7h1YQ40q-43" value="" style="endArrow=none;html=1;rounded=0;exitX=1;exitY=0.5;exitDx=0;exitDy=0;entryX=0;entryY=0.5;entryDx=0;entryDy=0;" edge="1" parent="1" source="5GbDGUJOhq0R7h1YQ40q-25" target="5GbDGUJOhq0R7h1YQ40q-28">
          <mxGeometry width="50" height="50" relative="1" as="geometry">
            <mxPoint x="330" y="550" as="sourcePoint" />
            <mxPoint x="380" y="500" as="targetPoint" />
          </mxGeometry>
        </mxCell>
        <mxCell id="5GbDGUJOhq0R7h1YQ40q-44" value="" style="endArrow=none;html=1;rounded=0;exitX=1;exitY=0.5;exitDx=0;exitDy=0;entryX=0;entryY=0.5;entryDx=0;entryDy=0;" edge="1" parent="1" source="5GbDGUJOhq0R7h1YQ40q-26" target="5GbDGUJOhq0R7h1YQ40q-29">
          <mxGeometry width="50" height="50" relative="1" as="geometry">
            <mxPoint x="330" y="550" as="sourcePoint" />
            <mxPoint x="380" y="500" as="targetPoint" />
          </mxGeometry>
        </mxCell>
        <mxCell id="5GbDGUJOhq0R7h1YQ40q-46" value="" style="endArrow=none;html=1;rounded=0;entryX=0;entryY=0.5;entryDx=0;entryDy=0;exitX=0.75;exitY=0.1;exitDx=0;exitDy=0;exitPerimeter=0;" edge="1" parent="1" source="5GbDGUJOhq0R7h1YQ40q-1" target="5GbDGUJOhq0R7h1YQ40q-4">
          <mxGeometry width="50" height="50" relative="1" as="geometry">
            <mxPoint x="80" y="170" as="sourcePoint" />
            <mxPoint x="130" y="120" as="targetPoint" />
          </mxGeometry>
        </mxCell>
        <mxCell id="5GbDGUJOhq0R7h1YQ40q-47" value="" style="endArrow=none;html=1;rounded=0;entryX=0;entryY=0.5;entryDx=0;entryDy=0;exitX=0.75;exitY=0.1;exitDx=0;exitDy=0;exitPerimeter=0;" edge="1" parent="1" source="5GbDGUJOhq0R7h1YQ40q-1" target="5GbDGUJOhq0R7h1YQ40q-5">
          <mxGeometry width="50" height="50" relative="1" as="geometry">
            <mxPoint x="90" y="182" as="sourcePoint" />
            <mxPoint x="140" y="132" as="targetPoint" />
          </mxGeometry>
        </mxCell>
        <mxCell id="5GbDGUJOhq0R7h1YQ40q-48" value="" style="endArrow=none;html=1;rounded=0;entryX=0;entryY=0.5;entryDx=0;entryDy=0;exitX=1;exitY=0.3333333333333333;exitDx=0;exitDy=0;exitPerimeter=0;" edge="1" parent="1" source="5GbDGUJOhq0R7h1YQ40q-1" target="5GbDGUJOhq0R7h1YQ40q-6">
          <mxGeometry width="50" height="50" relative="1" as="geometry">
            <mxPoint x="100" y="211" as="sourcePoint" />
            <mxPoint x="150" y="161" as="targetPoint" />
          </mxGeometry>
        </mxCell>
        <mxCell id="5GbDGUJOhq0R7h1YQ40q-49" value="" style="endArrow=none;html=1;rounded=0;exitX=0;exitY=0.5;exitDx=0;exitDy=0;entryX=0.5;entryY=0.5;entryDx=0;entryDy=0;entryPerimeter=0;" edge="1" parent="1" source="5GbDGUJOhq0R7h1YQ40q-7" target="5GbDGUJOhq0R7h1YQ40q-1">
          <mxGeometry width="50" height="50" relative="1" as="geometry">
            <mxPoint x="40" y="240" as="sourcePoint" />
            <mxPoint x="90" y="190" as="targetPoint" />
          </mxGeometry>
        </mxCell>
        <mxCell id="5GbDGUJOhq0R7h1YQ40q-50" value="" style="endArrow=none;html=1;rounded=0;exitX=0;exitY=0.5;exitDx=0;exitDy=0;entryX=1;entryY=1;entryDx=0;entryDy=0;entryPerimeter=0;" edge="1" parent="1" source="5GbDGUJOhq0R7h1YQ40q-8" target="5GbDGUJOhq0R7h1YQ40q-1">
          <mxGeometry width="50" height="50" relative="1" as="geometry">
            <mxPoint x="50" y="278" as="sourcePoint" />
            <mxPoint x="100" y="228" as="targetPoint" />
          </mxGeometry>
        </mxCell>
        <mxCell id="5GbDGUJOhq0R7h1YQ40q-51" value="" style="endArrow=none;html=1;rounded=0;exitX=0;exitY=0.5;exitDx=0;exitDy=0;entryX=0;entryY=1;entryDx=0;entryDy=0;entryPerimeter=0;" edge="1" parent="1" source="5GbDGUJOhq0R7h1YQ40q-9" target="5GbDGUJOhq0R7h1YQ40q-1">
          <mxGeometry width="50" height="50" relative="1" as="geometry">
            <mxPoint x="20" y="278" as="sourcePoint" />
            <mxPoint x="70" y="228" as="targetPoint" />
          </mxGeometry>
        </mxCell>
        <mxCell id="5GbDGUJOhq0R7h1YQ40q-52" value="" style="endArrow=none;html=1;rounded=0;exitX=0.75;exitY=0.1;exitDx=0;exitDy=0;exitPerimeter=0;entryX=0;entryY=0.5;entryDx=0;entryDy=0;" edge="1" parent="1" source="5GbDGUJOhq0R7h1YQ40q-3" target="5GbDGUJOhq0R7h1YQ40q-22">
          <mxGeometry width="50" height="50" relative="1" as="geometry">
            <mxPoint x="380" y="470" as="sourcePoint" />
            <mxPoint x="430" y="420" as="targetPoint" />
          </mxGeometry>
        </mxCell>
        <mxCell id="5GbDGUJOhq0R7h1YQ40q-53" value="" style="endArrow=none;html=1;rounded=0;entryX=0;entryY=0.5;entryDx=0;entryDy=0;exitX=1;exitY=0.3333333333333333;exitDx=0;exitDy=0;exitPerimeter=0;" edge="1" parent="1" source="5GbDGUJOhq0R7h1YQ40q-3" target="5GbDGUJOhq0R7h1YQ40q-23">
          <mxGeometry width="50" height="50" relative="1" as="geometry">
            <mxPoint x="90" y="510" as="sourcePoint" />
            <mxPoint x="140" y="460" as="targetPoint" />
          </mxGeometry>
        </mxCell>
        <mxCell id="5GbDGUJOhq0R7h1YQ40q-54" value="" style="endArrow=none;html=1;rounded=0;entryX=0;entryY=0.5;entryDx=0;entryDy=0;exitX=0.5;exitY=0.5;exitDx=0;exitDy=0;exitPerimeter=0;" edge="1" parent="1" source="5GbDGUJOhq0R7h1YQ40q-3" target="5GbDGUJOhq0R7h1YQ40q-25">
          <mxGeometry width="50" height="50" relative="1" as="geometry">
            <mxPoint x="100" y="525" as="sourcePoint" />
            <mxPoint x="150" y="475" as="targetPoint" />
          </mxGeometry>
        </mxCell>
        <mxCell id="5GbDGUJOhq0R7h1YQ40q-55" value="" style="endArrow=none;html=1;rounded=0;exitX=0;exitY=0.5;exitDx=0;exitDy=0;entryX=1;entryY=1;entryDx=0;entryDy=0;entryPerimeter=0;" edge="1" parent="1" source="5GbDGUJOhq0R7h1YQ40q-26" target="5GbDGUJOhq0R7h1YQ40q-3">
          <mxGeometry width="50" height="50" relative="1" as="geometry">
            <mxPoint x="80" y="615" as="sourcePoint" />
            <mxPoint x="130" y="565" as="targetPoint" />
          </mxGeometry>
        </mxCell>
      </root>
    </mxGraphModel>
  </diagram>
</mxfile>
